<svg width="42" height="44" viewBox="0 0 42 44" fill="none" xmlns="http://www.w3.org/2000/svg">
<path d="M10.3757 24.3216V28.3281C10.2207 28.3689 9.98406 28.4097 9.65766 28.4505C9.33126 28.4913 9.00487 28.5158 8.68663 28.5158C8.36839 28.5158 8.0828 28.4913 7.838 28.4423C7.5932 28.3934 7.3892 28.3036 7.23417 28.1812C7.07097 28.0588 6.94857 27.8793 6.86697 27.659C6.78537 27.4386 6.74457 27.1449 6.74457 26.7858V16.9613C6.74457 16.6675 6.82617 16.4472 6.98121 16.284C7.14441 16.1208 7.35656 15.9984 7.64216 15.9005C8.11544 15.7373 8.66215 15.6149 9.29046 15.5333C9.91878 15.4599 10.5797 15.4191 11.2896 15.4191C13.2072 15.4191 14.6515 15.8189 15.6307 16.6267C16.6018 17.4346 17.0914 18.528 17.0914 19.8989C17.0914 20.7638 16.871 21.4982 16.4222 22.1102C15.9735 22.7222 15.4512 23.1955 14.8392 23.53C15.337 24.2155 15.8347 24.8519 16.3243 25.4476C16.8139 26.0433 17.1893 26.59 17.4749 27.0714C17.3362 27.561 17.0832 27.9282 16.716 28.1894C16.3488 28.4505 15.9326 28.5729 15.4757 28.5729C15.1656 28.5729 14.9045 28.5402 14.6842 28.4668C14.4639 28.3934 14.268 28.3036 14.0967 28.173C13.9335 28.0506 13.7784 27.8956 13.6397 27.7161C13.501 27.5366 13.3704 27.3407 13.2399 27.1286L11.4855 24.3134H10.3757V24.3216ZM11.6895 21.5472C12.2199 21.5472 12.636 21.4085 12.938 21.1392C13.2399 20.8699 13.3949 20.4701 13.3949 19.9397C13.3949 19.4093 13.2236 19.0094 12.8808 18.7402C12.5381 18.4709 11.9996 18.3322 11.2652 18.3322C11.053 18.3322 10.8898 18.3403 10.7674 18.3566C10.645 18.373 10.5063 18.3893 10.3513 18.4219V21.5472H11.6895V21.5472Z" fill="#333333"/>
<path d="M22.5989 24.3215V28.3281C22.4439 28.3689 22.2072 28.4097 21.8808 28.4505C21.5544 28.4913 21.228 28.5158 20.9098 28.5158C20.5916 28.5158 20.306 28.4913 20.0612 28.4423C19.8164 28.3934 19.6124 28.3036 19.4573 28.1812C19.2941 28.0588 19.1717 27.8793 19.0901 27.659C19.0085 27.4386 18.9677 27.1449 18.9677 26.7858V16.9613C18.9677 16.6675 19.0493 16.4472 19.2044 16.284C19.3676 16.1208 19.5797 15.9984 19.8653 15.9005C20.3386 15.7373 20.8853 15.6149 21.5136 15.5333C22.1419 15.4599 22.8029 15.4191 23.5128 15.4191C25.4304 15.4191 26.8747 15.8189 27.8539 16.6267C28.8249 17.4346 29.3145 18.528 29.3145 19.8989C29.3145 20.7638 29.0942 21.4982 28.6454 22.1102C28.1966 22.7222 27.6744 23.1955 27.0624 23.53C27.5601 24.2155 28.0579 24.8519 28.5475 25.4476C29.0371 26.0433 29.4125 26.59 29.6981 27.0714C29.5593 27.561 29.3064 27.9282 28.9392 28.1894C28.572 28.4505 28.1558 28.5729 27.6989 28.5729C27.3969 28.5729 27.1277 28.5402 26.9074 28.4668C26.687 28.3934 26.4912 28.3036 26.3198 28.173C26.1566 28.0506 26.0016 27.8956 25.8629 27.7161C25.7242 27.5366 25.5936 27.3407 25.4631 27.1286L23.7087 24.3134H22.5989V24.3215ZM23.9127 21.5472C24.4431 21.5472 24.8592 21.4084 25.1611 21.1392C25.4631 20.8699 25.6181 20.4701 25.6181 19.9397C25.6181 19.4093 25.4467 19.0094 25.104 18.7401C24.7613 18.4709 24.2227 18.3322 23.4884 18.3322C23.2762 18.3322 23.113 18.3403 22.9906 18.3566C22.8682 18.373 22.7295 18.3893 22.5744 18.4219V21.5472H23.9127V21.5472Z" fill="#333333"/>
<path d="M32.814 28.5902C33.8741 28.5902 34.7334 27.7309 34.7334 26.6709C34.7334 25.6109 33.8741 24.7515 32.814 24.7515C31.754 24.7515 30.8947 25.6109 30.8947 26.6709C30.8947 27.7309 31.754 28.5902 32.814 28.5902Z" fill="#EF4E66"/>
<path d="M6.50528 36.4989C10.377 40.3706 15.5225 42.5041 21 42.5041C26.4769 42.5041 31.6307 40.371 35.4947 36.4907C39.3665 32.619 41.5 27.4735 41.5 21.996C41.5 16.5268 39.3665 11.3731 35.4947 7.50125C31.623 3.62951 26.4775 1.49597 21 1.49597C15.5226 1.49597 10.3769 3.6295 6.50509 7.5096C2.63348 11.3813 0.5 16.5267 0.5 22.0041C0.5 27.4733 2.63347 32.627 6.50528 36.4989ZM2.47103 22.0041C2.47103 11.7866 10.7825 3.47516 21 3.47516C31.2175 3.47516 39.529 11.7866 39.529 22.0041C39.529 32.2217 31.2175 40.5331 21 40.5331C10.7825 40.5331 2.47103 32.2217 2.47103 22.0041Z" fill="#333333" stroke="#333333"/>
</svg>
